<?xml version="1.0" standalone="no"?>
<!DOCTYPE svg PUBLIC "-//W3C//DTD SVG 20010904//EN"
 "http://www.w3.org/TR/2001/REC-SVG-20010904/DTD/svg10.dtd">
<svg version="1.0" xmlns="http://www.w3.org/2000/svg"
 width="700.000000pt" height="700.000000pt" viewBox="0 0 700.000000 700.000000"
 preserveAspectRatio="xMidYMid meet">
<metadata>
Created by potrace 1.14, written by Peter Selinger 2001-2017
</metadata>
<g transform="translate(0.000000,700.000000) scale(0.100000,-0.100000)"
fill="#000000" stroke="none">
<path d="M3208 6855 c-2 -2 -48 -5 -103 -9 -55 -3 -109 -8 -120 -10 -11 -2
-47 -7 -80 -11 -32 -4 -66 -8 -75 -10 -8 -1 -35 -6 -60 -10 -56 -9 -63 -11
-125 -25 -27 -6 -57 -13 -65 -15 -97 -20 -319 -91 -456 -145 -972 -387 -1707
-1204 -1993 -2216 -29 -103 -67 -273 -76 -339 -2 -16 -8 -59 -14 -95 -33 -203
-37 -736 -7 -897 2 -10 7 -38 11 -63 3 -25 9 -58 11 -75 3 -16 14 -73 25 -125
11 -52 22 -106 25 -120 3 -14 9 -38 14 -55 5 -16 22 -70 36 -120 32 -108 59
-180 126 -340 299 -706 862 -1308 1553 -1660 394 -201 793 -315 1260 -362 77
-7 3837 -12 3883 -4 l22 3 0 847 0 847 -1857 2 c-1022 1 -1885 5 -1918 8 -655
60 -1211 501 -1420 1128 -60 179 -90 375 -89 576 1 206 55 432 156 650 29 64
117 216 143 248 7 9 41 52 75 94 255 322 680 552 1100 596 36 4 908 7 1937 7
l1873 0 0 851 0 851 -1895 0 c-1042 0 -1896 -1 -1897 -2z"/>
</g>
</svg>
